name C:\Users\r0593348\3dpredictsim\Results\MidTarsalJoint\Fal_s1_bCst_PF_Natali2010_ls150_MT_k300_MTP_T5_ig24_PFx2.mot
datacolumns 128
datarows 4
range 1.71732093 1.75166735
endheader
time	pelvis_tilt	pelvis_list	pelvis_rotation	pelvis_tx	pelvis_ty	pelvis_tz	hip_flexion_l	hip_adduction_l	hip_rotation_l	hip_flexion_r	hip_adduction_r	hip_rotation_r	knee_angle_l	knee_angle_r	ankle_angle_l	ankle_angle_r	subtalar_angle_l	subtalar_angle_r	mtj_angle_l	mtj_angle_r	mtp_angle_l	mtp_angle_r	lumbar_extension	lumbar_bending	lumbar_rotation	arm_flex_l	arm_add_l	arm_rot_l	arm_flex_r	arm_add_r	arm_rot_r	elbow_flex_l	elbow_flex_r	pro_sup_l	pro_sup_r	glut_med1_l/activation	glut_med2_l/activation	glut_med3_l/activation	glut_min1_l/activation	glut_min2_l/activation	glut_min3_l/activation	semimem_l/activation	semiten_l/activation	bifemlh_l/activation	bifemsh_l/activation	sar_l/activation	add_long_l/activation	add_brev_l/activation	add_mag1_l/activation	add_mag2_l/activation	add_mag3_l/activation	tfl_l/activation	pect_l/activation	grac_l/activation	glut_max1_l/activation	glut_max2_l/activation	glut_max3_l/activation	iliacus_l/activation	psoas_l/activation	quad_fem_l/activation	gem_l/activation	peri_l/activation	rect_fem_l/activation	vas_med_l/activation	vas_int_l/activation	vas_lat_l/activation	med_gas_l/activation	lat_gas_l/activation	soleus_l/activation	tib_post_l/activation	flex_dig_l/activation	flex_hal_l/activation	tib_ant_l/activation	per_brev_l/activation	per_long_l/activation	per_tert_l/activation	ext_dig_l/activation	ext_hal_l/activation	ercspn_l/activation	intobl_l/activation	extobl_l/activation	glut_med1_r/activation	glut_med2_r/activation	glut_med3_r/activation	glut_min1_r/activation	glut_min2_r/activation	glut_min3_r/activation	semimem_r/activation	semiten_r/activation	bifemlh_r/activation	bifemsh_r/activation	sar_r/activation	add_long_r/activation	add_brev_r/activation	add_mag1_r/activation	add_mag2_r/activation	add_mag3_r/activation	tfl_r/activation	pect_r/activation	grac_r/activation	glut_max1_r/activation	glut_max2_r/activation	glut_max3_r/activation	iliacus_r/activation	psoas_r/activation	quad_fem_r/activation	gem_r/activation	peri_r/activation	rect_fem_r/activation	vas_med_r/activation	vas_int_r/activation	vas_lat_r/activation	med_gas_r/activation	lat_gas_r/activation	soleus_r/activation	tib_post_r/activation	flex_dig_r/activation	flex_hal_r/activation	tib_ant_r/activation	per_brev_r/activation	per_long_r/activation	per_tert_r/activation	ext_dig_r/activation	ext_hal_r/activation	ercspn_r/activation	intobl_r/activation	extobl_r/activation	
          1.71732093	         -2.92987573	          2.25778957	         -5.44823323	          2.14665116	          0.91929459	          0.00242509	         28.73226907	          3.47148500	         -2.68721530	        -16.80429053	         -0.98004503	          6.64439250	         -8.64809643	         -7.46078255	          6.29965826	         -1.80484363	         -6.06502043	          6.87635589	         -0.17595989	          4.61963135	          0.71494492	         12.88919382	         -2.14033849	         -0.39493232	          2.18560313	         -5.33929924	        -13.45875230	          6.19939378	          5.16834369	        -13.45088061	         16.30049000	         16.75541689	         35.35912258	         86.51662706	         86.51662706	          0.05954050	          0.05954043	          0.05000152	          0.05954078	          0.05954066	          0.05094211	          0.22278951	          0.09216515	          0.14735364	          0.09028557	          0.05000112	          0.15258026	          0.24032637	          0.20499893	          0.20370423	          0.11765859	          0.05000063	          0.05006382	          0.14684785	          0.05008557	          0.06845894	          0.16406018	          0.05000238	          0.05000079	          0.18280417	          0.28086186	          0.12597891	          0.05000072	          0.09250460	          0.09012595	          0.08150804	          0.06562413	          0.06651819	          0.06176673	          0.05000018	          0.05000174	          0.05000119	          0.45404388	          0.26561805	          0.17603149	          0.11238422	          0.47956312	          0.22437785	          0.05954065	          0.12214751	          0.10054154	          0.26451030	          0.10055001	          0.07783869	          0.28939721	          0.19254355	          0.11493680	          0.05000808	          0.05000157	          0.05000088	          0.05347631	          0.11323697	          0.05966019	          0.05001898	          0.05000405	          0.05000834	          0.05000255	          0.31807869	          0.07066540	          0.05002550	          0.05000935	          0.05000443	          0.05000342	          0.45024912	          0.67939110	          0.05000065	          0.05000241	          0.05918319	          0.26821014	          0.05000114	          0.05000117	          0.05000111	          0.28677407	          0.39490040	          0.34253737	          0.28287545	          0.27664593	          0.36198994	          0.05000025	          0.05953984	          0.10888467	          0.05000180	          0.05000043	          0.05000141	          0.05000009	          0.05000026	          0.05000131	
          1.72876973	         -2.92944032	          2.33861252	         -5.74194514	          2.16389384	          0.91843788	          0.00222912	         28.12456108	          3.83840381	         -2.43970855	        -16.75037233	         -1.28246268	          6.43586573	         -9.14343454	         -9.25917506	          5.64681348	         -2.31354916	         -6.39788542	          7.86333718	         -0.24050642	          3.79373169	          0.71269144	         14.62981193	         -1.93553349	         -0.58062486	          2.25532296	         -6.24533541	        -13.45018727	          6.00062340	          4.90708439	        -13.45640244	         16.65591663	         16.36374011	         36.53292769	         86.51662706	         86.51662706	          0.05000008	          0.05000024	          0.09690793	          0.05000027	          0.05000031	          0.05000039	          0.18709061	          0.07739706	          0.12374216	          0.07581879	          0.05955801	          0.12813300	          0.31493362	          0.31166238	          0.19922065	          0.11557926	          0.05000169	          0.07096845	          0.12856600	          0.05005073	          0.09012237	          0.14825038	          0.05000128	          0.07064856	          0.53653609	          0.23585745	          0.10579273	          0.05955249	          0.08564935	          0.08884676	          0.07480386	          0.06737478	          0.07090123	          0.06122198	          0.05954137	          0.05095004	          0.05954375	          0.47207845	          0.29434255	          0.21648066	          0.09437653	          0.40272017	          0.18842435	          0.05000007	          0.10257489	          0.08443102	          0.22212611	          0.08443829	          0.06536644	          0.24302566	          0.16169121	          0.09651992	          0.05002059	          0.05000407	          0.05000500	          0.05000100	          0.09509341	          0.12585247	          0.05009743	          0.05954281	          0.05950887	          0.05954327	          0.26711146	          0.05936566	          0.05005923	          0.05005812	          0.05004561	          0.05012122	          0.37810257	          0.63441893	          0.05480465	          0.05954513	          0.05954319	          0.22523380	          0.13381605	          0.13808260	          0.13746784	          0.24082205	          0.33162268	          0.30113714	          0.24888550	          0.23232132	          0.30400271	          0.05000020	          0.05000069	          0.12305254	          0.05000057	          0.05000019	          0.05000090	          0.05675424	          0.07004728	          0.05954278	
          1.74021854	         -2.92451017	          2.42202066	         -6.00307703	          2.18146002	          0.91760669	          0.00205604	         27.41289829	          4.09575091	         -2.16822016	        -16.64567415	         -1.58639687	          6.21837536	         -9.78032335	        -11.13457976	          5.06991318	         -2.95893354	         -6.74268669	          8.81684983	         -0.34581506	          2.82403254	          0.72708731	         16.47120556	         -1.70887299	         -0.77816137	          2.31206418	         -7.18254333	        -13.45064504	          5.85620478	          4.56014610	        -13.45786735	         16.92761358	         16.02890003	         37.69140899	         86.51662706	         86.51662706	          0.23384035	          0.22636003	          0.27383730	          0.35023114	          0.22984951	          0.21786758	          0.15711394	          0.06624713	          0.10391547	          0.07077929	          0.05001599	          0.10760152	          0.26446972	          0.26172280	          0.16729907	          0.13063631	          0.05000319	          0.05960090	          0.10796774	          0.05000218	          0.08883466	          0.13061781	          0.05418194	          0.05932845	          0.45056287	          0.19806467	          0.19006058	          0.05001007	          0.07192561	          0.07461069	          0.06281793	          0.05657895	          0.05954045	          0.05141199	          0.05000089	          0.05000349	          0.05000493	          0.52195621	          0.32231008	          0.18179268	          0.34473417	          0.49645234	          0.15823406	          0.05921660	          0.12465965	          0.07090202	          0.30953899	          0.07090832	          0.05489298	          0.30474971	          0.13578294	          0.08105421	          0.05000897	          0.05000126	          0.05000105	          0.05000215	          0.07986037	          0.10568666	          0.05000209	          0.05000338	          0.05000486	          0.05000416	          0.28234262	          0.05005472	          0.05000559	          0.05004003	          0.05001407	          0.05000486	          0.31751703	          0.60475377	          0.05000172	          0.05001093	          0.05000533	          0.18914324	          0.11237486	          0.11595779	          0.11544137	          0.20223326	          0.27848425	          0.25288359	          0.20900509	          0.19509565	          0.25529095	          0.05000019	          0.08216865	          0.14532495	          0.05000111	          0.05000054	          0.05000106	          0.05000493	          0.05882308	          0.05000189	
          1.75166735	         -2.91722574	          2.50151922	         -6.22698024	          2.19913387	          0.91684260	          0.00185838	         26.66814618	          4.31965872	         -1.89416511	        -16.44367771	         -1.88449208	          6.01362541	        -10.38480616	        -13.14287050	          4.56852244	         -3.75744098	         -7.07308722	          9.74326199	         -0.29596907	          1.76248540	          0.75064721	         18.32689455	         -1.48411701	         -0.98020237	          2.35885521	         -8.10187994	        -13.45264058	          5.76723795	          4.16369623	        -13.46379424	         17.13900491	         15.72515749	         38.81374014	         86.51662706	         86.51662706	          0.33285441	          0.32911743	          0.34588526	          0.29411197	          0.19945579	          0.20105515	          0.13194155	          0.06462166	          0.08833875	          0.05943869	          0.05000996	          0.09035984	          0.22209185	          0.21978562	          0.14049294	          0.16034740	          0.05000247	          0.05005224	          0.09066819	          0.20754213	          0.17141964	          0.15114702	          0.05000040	          0.05000047	          0.37836586	          0.16632759	          0.15960669	          0.05000045	          0.08132692	          0.08623550	          0.06615685	          0.05000026	          0.05000077	          0.05000014	          0.05000146	          0.05000129	          0.05000159	          0.59908572	          0.35876046	          0.19615257	          0.38141482	          0.52917220	          0.28453135	          0.08054692	          0.10468453	          0.05954091	          0.27006102	          0.05954631	          0.05000259	          0.25591905	          0.11402580	          0.06806659	          0.05001496	          0.05000141	          0.05000134	          0.05000084	          0.06706500	          0.11863836	          0.07741633	          0.05022828	          0.05009500	          0.05002866	          0.23710898	          0.05163242	          0.05001427	          0.05004391	          0.05002903	          0.05003154	          0.26663899	          0.55526063	          0.05001005	          0.05001766	          0.05000149	          0.15883546	          0.14081794	          0.13384676	          0.11973668	          0.16982785	          0.23386058	          0.21236207	          0.17551478	          0.16383453	          0.21438416	          0.05631878	          0.06900381	          0.14965056	          0.05000331	          0.10542749	          0.05000853	          0.06620926	          0.05000010	          0.05000018	
